<svg width="21" height="21" viewBox="0 0 21 21" fill="none" xmlns="http://www.w3.org/2000/svg">
<path fill-rule="evenodd" clip-rule="evenodd" d="M6.12503 11.375C6.12503 10.8918 6.51679 10.5001 7.00003 10.5001H14.0001C14.4833 10.5001 14.875 10.8918 14.875 11.375C14.875 11.8583 14.4833 12.25 14.0001 12.25H7.00003C6.51679 12.25 6.12503 11.8583 6.12503 11.375Z" fill="white"/>
<path fill-rule="evenodd" clip-rule="evenodd" d="M6.12503 14.875C6.12503 14.3917 6.51679 14 7.00003 14H14.0001C14.4833 14 14.875 14.3917 14.875 14.875C14.875 15.3582 14.4833 15.7499 14.0001 15.7499H7.00003C6.51679 15.7499 6.12503 15.3582 6.12503 14.875Z" fill="white"/>
<path fill-rule="evenodd" clip-rule="evenodd" d="M6.12503 7.87499C6.12503 7.39173 6.51679 7.00002 7.00003 7.00002H8.75005C9.23331 7.00002 9.62503 7.39173 9.62503 7.87499C9.62503 8.35826 9.23331 8.75004 8.75005 8.75004H7.00003C6.51679 8.75004 6.12503 8.35826 6.12503 7.87499Z" fill="white"/>
<path fill-rule="evenodd" clip-rule="evenodd" d="M4.19609 2.47638C4.64533 2.0143 5.25997 1.75002 5.90622 1.75002H11.2656C11.5019 1.75002 11.7282 1.84562 11.8929 2.01507L17.2523 7.52758C17.4111 7.69092 17.4999 7.90972 17.4999 8.1375V16.8C17.4999 17.4419 17.2523 18.0624 16.8039 18.5236C16.3546 18.9857 15.74 19.25 15.0937 19.25H5.90622C5.25996 19.25 4.64533 18.9857 4.19609 18.5236C3.74767 18.0624 3.49997 17.4419 3.49997 16.8V4.20001C3.49997 3.55806 3.74767 2.93761 4.19609 2.47638ZM5.90622 3.50001C5.74026 3.50001 5.57592 3.5676 5.45084 3.69626C5.32493 3.82577 5.24997 4.00653 5.24997 4.20001V16.8C5.24997 16.9935 5.32493 17.1743 5.45084 17.3037C5.57592 17.4324 5.74026 17.5 5.90622 17.5H15.0937C15.2597 17.5 15.424 17.4324 15.5491 17.3037C15.675 17.1743 15.75 16.9935 15.75 16.8V8.49273L10.8959 3.50001H5.90622Z" fill="white"/>
<path fill-rule="evenodd" clip-rule="evenodd" d="M11.375 2.625C11.8582 2.625 12.25 3.01675 12.25 3.5V7.00002H15.75C16.2333 7.00002 16.625 7.39174 16.625 7.875C16.625 8.35826 16.2333 8.74998 15.75 8.74998H11.375C10.8918 8.74998 10.5 8.35826 10.5 7.875V3.5C10.5 3.01675 10.8918 2.625 11.375 2.625Z" fill="white"/>
</svg>
