<svg width="17" height="16" viewBox="0 0 17 16" fill="none" xmlns="http://www.w3.org/2000/svg">
<path fill-rule="evenodd" clip-rule="evenodd" d="M8.5 6.00006C8.89121 6.00006 9.20837 6.29851 9.20837 6.66671V12.6667C9.20837 13.0349 8.89121 13.3334 8.5 13.3334C8.10879 13.3334 7.79169 13.0349 7.79169 12.6667V6.66671C7.79169 6.29851 8.10879 6.00006 8.5 6.00006Z" fill="#FF6C22"/>
<path fill-rule="evenodd" clip-rule="evenodd" d="M12.0416 2.66666C12.4328 2.66666 12.75 2.96514 12.75 3.33333V12.6667C12.75 13.0349 12.4328 13.3333 12.0416 13.3333C11.6505 13.3333 11.3333 13.0349 11.3333 12.6667V3.33333C11.3333 2.96514 11.6505 2.66666 12.0416 2.66666Z" fill="#FF6C22"/>
<path fill-rule="evenodd" clip-rule="evenodd" d="M4.95833 9.33334C5.34953 9.33334 5.66668 9.63179 5.66668 9.99999V12.6667C5.66668 13.0348 5.34953 13.3333 4.95833 13.3333C4.56713 13.3333 4.25 13.0348 4.25 12.6667V9.99999C4.25 9.63179 4.56713 9.33334 4.95833 9.33334Z" fill="#FF6C22"/>
</svg>
