<svg width="19" height="20" viewBox="0 0 19 20" fill="none" xmlns="http://www.w3.org/2000/svg">
<path fill-rule="evenodd" clip-rule="evenodd" d="M15.25 4.16667H5.74998C4.87553 4.16667 4.16665 4.91286 4.16665 5.83333V15C4.16665 15.9205 4.87553 16.6667 5.74998 16.6667H15.25C16.1245 16.6667 16.8333 15.9205 16.8333 15V5.83333C16.8333 4.91286 16.1245 4.16667 15.25 4.16667ZM5.74998 2.5C4.00108 2.5 2.58331 3.99238 2.58331 5.83333V15C2.58331 16.8409 4.00108 18.3333 5.74998 18.3333H15.25C16.9989 18.3333 18.4167 16.8409 18.4167 15V5.83333C18.4167 3.99238 16.9989 2.5 15.25 2.5H5.74998Z" fill="white"/>
<path fill-rule="evenodd" clip-rule="evenodd" d="M4.16669 6.66669H16.8334V8.33335H4.16669V6.66669Z" fill="white"/>
<path fill-rule="evenodd" clip-rule="evenodd" d="M6.54166 1.66669C6.97889 1.66669 7.33333 2.03979 7.33333 2.50002V5.00002C7.33333 5.46025 6.97889 5.83335 6.54166 5.83335C6.10444 5.83335 5.75 5.46025 5.75 5.00002V2.50002C5.75 2.03979 6.10444 1.66669 6.54166 1.66669Z" fill="white"/>
<path fill-rule="evenodd" clip-rule="evenodd" d="M10.5 1.66669C10.9372 1.66669 11.2916 2.03979 11.2916 2.50002V5.00002C11.2916 5.46025 10.9372 5.83335 10.5 5.83335C10.0627 5.83335 9.70831 5.46025 9.70831 5.00002V2.50002C9.70831 2.03979 10.0627 1.66669 10.5 1.66669Z" fill="white"/>
<path fill-rule="evenodd" clip-rule="evenodd" d="M14.4584 1.66669C14.8956 1.66669 15.25 2.03979 15.25 2.50002V5.00002C15.25 5.46025 14.8956 5.83335 14.4584 5.83335C14.0211 5.83335 13.6667 5.46025 13.6667 5.00002V2.50002C13.6667 2.03979 14.0211 1.66669 14.4584 1.66669Z" fill="white"/>
</svg>
