<svg width="18" height="18" viewBox="0 0 18 18" fill="none" xmlns="http://www.w3.org/2000/svg">
<path fill-rule="evenodd" clip-rule="evenodd" d="M16.2754 4.71483C16.571 5.00502 16.5753 5.47988 16.2852 5.77547L10.4556 11.7129C10.3146 11.8566 10.1217 11.9375 9.92046 11.9375C9.71914 11.9375 9.52632 11.8566 9.3853 11.7129L6.85225 9.13303L2.78517 13.2755C2.49498 13.571 2.02012 13.5754 1.72456 13.2852C1.42899 12.995 1.42463 12.5201 1.71483 12.2245L6.31709 7.53705C6.45811 7.39345 6.65099 7.3125 6.85225 7.3125C7.05357 7.3125 7.24639 7.39345 7.38747 7.53705L9.92046 10.117L15.2148 4.72456C15.505 4.42899 15.9799 4.42463 16.2754 4.71483Z" fill="white"/>
<path fill-rule="evenodd" clip-rule="evenodd" d="M11.25 5.25C11.25 4.83578 11.5858 4.5 12 4.5H15.75C16.1642 4.5 16.5 4.83578 16.5 5.25V9C16.5 9.41423 16.1642 9.74998 15.75 9.74998C15.3358 9.74998 15 9.41423 15 9V6.00002H12C11.5858 6.00002 11.25 5.66421 11.25 5.25Z" fill="white"/>
</svg>
